<svg width="32" height="32" viewBox="0 0 32 32" fill="none" xmlns="http://www.w3.org/2000/svg">
  <!-- Ink drop/wave motif for massage gun theme -->
  <rect width="32" height="32" rx="6" fill="#1A1B4B"/>
  
  <!-- Abstract ink flow representing energy and relief -->
  <path d="M8 16C8 16 10 12 12 12C14 12 14 16 16 16C18 16 18 12 20 12C22 12 24 16 24 16" 
        stroke="#5BA58C" 
        stroke-width="2.5" 
        stroke-linecap="round" 
        stroke-linejoin="round"
        fill="none"/>
  
  <path d="M8 20C8 20 10 16 12 16C14 16 14 20 16 20C18 20 18 16 20 16C22 16 24 20 24 20" 
        stroke="#E8A39A" 
        stroke-width="2" 
        stroke-linecap="round" 
        stroke-linejoin="round"
        fill="none"
        opacity="0.7"/>
  
  <!-- Small accent dot representing precision -->
  <circle cx="16" cy="10" r="1.5" fill="#5BA58C"/>
</svg>
